<svg width="118" height="65" viewBox="0 0 118 65" fill="none" xmlns="http://www.w3.org/2000/svg">
<g filter="url(#filter0_f_4_3)">
<path d="M110.267 53.2482C110.267 46.9074 105.127 41.7687 98.7851 41.7687C96.4981 41.7687 94.3526 42.4523 92.5608 43.6309C91.264 39.2936 88.0811 35.805 83.9551 34.0842C81.8804 18.786 68.7952 7 52.9279 7C37.0606 7 24.9892 17.8903 22.16 32.3163C13.6958 32.882 7 39.9065 7 48.5103C7 51.6453 7.91952 54.5918 9.45202 57.0669H109.536C109.961 55.8647 110.243 54.5918 110.243 53.2482H110.267Z" stroke="#41A5FA" stroke-width="2" stroke-miterlimit="10"/>
<path d="M81.5029 53.7433C81.5029 49.8775 78.3672 46.7424 74.5006 46.7424C73.9347 46.7424 73.3925 46.8367 72.8738 46.9546C72.8738 46.601 72.9209 46.2474 72.9209 45.8702C72.9209 36.3 65.1641 28.5212 55.5683 28.5212C45.9725 28.5212 38.2156 36.2764 38.2156 45.8702C38.2156 46.6952 38.2864 47.5203 38.4043 48.3217C36.801 49.5946 35.7637 51.5511 35.7637 53.7669C35.7637 54.969 36.0937 56.1005 36.636 57.0905H80.607C81.1493 56.1005 81.4793 54.969 81.4793 53.7669L81.5029 53.7433Z" stroke="#41A5FA" stroke-width="2" stroke-miterlimit="10"/>
</g>
<path d="M110.267 53.2482C110.267 46.9074 105.127 41.7687 98.7851 41.7687C96.4981 41.7687 94.3526 42.4523 92.5608 43.6309C91.264 39.2936 88.0811 35.805 83.9551 34.0842C81.8804 18.786 68.7952 7 52.9279 7C37.0606 7 24.9892 17.8903 22.16 32.3163C13.6958 32.882 7 39.9065 7 48.5103C7 51.6453 7.91952 54.5918 9.45202 57.0669H109.536C109.961 55.8647 110.243 54.5918 110.243 53.2482H110.267Z" stroke="#41A5FA" stroke-width="2" stroke-miterlimit="10"/>
<path d="M81.5029 53.7433C81.5029 49.8775 78.3672 46.7424 74.5006 46.7424C73.9347 46.7424 73.3925 46.8367 72.8738 46.9546C72.8738 46.601 72.9209 46.2474 72.9209 45.8702C72.9209 36.3 65.1641 28.5212 55.5683 28.5212C45.9725 28.5212 38.2156 36.2764 38.2156 45.8702C38.2156 46.6952 38.2864 47.5203 38.4043 48.3217C36.801 49.5946 35.7637 51.5511 35.7637 53.7669C35.7637 54.969 36.0937 56.1005 36.636 57.0905H80.607C81.1493 56.1005 81.4793 54.969 81.4793 53.7669L81.5029 53.7433Z" stroke="#41A5FA" stroke-width="2" stroke-miterlimit="10"/>
<defs>
<filter id="filter0_f_4_3" x="0" y="0" width="117.267" height="64.0905" filterUnits="userSpaceOnUse" color-interpolation-filters="sRGB">
<feFlood flood-opacity="0" result="BackgroundImageFix"/>
<feBlend mode="normal" in="SourceGraphic" in2="BackgroundImageFix" result="shape"/>
<feGaussianBlur stdDeviation="3" result="effect1_foregroundBlur_4_3"/>
</filter>
</defs>
</svg>
