<svg width="47" height="58" viewBox="0 0 47 58" fill="none" xmlns="http://www.w3.org/2000/svg">
<path d="M45.8155 10.7963L35.2203 0.200932C35.1015 0.0821362 34.8915 0 34.7362 0H11.9836C9.90112 0 8.20225 1.69887 8.20225 3.79056V8.20214H3.7814C1.69887 8.20214 0 9.90101 0 11.9927V54.2186C0 56.3011 1.69887 58 3.7814 58H34.0236C36.1153 58 37.8142 56.3011 37.8142 54.2186V49.7979H42.2259C44.3176 49.7979 46.0165 48.0989 46.0165 46.0165V11.2803C46.0165 11.1434 45.9434 10.9242 45.8155 10.7963ZM35.4211 2.33833L43.6781 10.5953H37.8416C36.508 10.5953 35.4211 9.50843 35.4211 8.17487V2.33833ZM44.6464 46.0165C44.6464 47.3409 43.5595 48.4278 42.2259 48.4278H11.9836C10.6501 48.4278 9.57235 47.3409 9.57235 46.0165V3.79068C9.57235 2.45713 10.6501 1.37021 11.9836 1.37021H34.051V8.17487C34.051 10.2666 35.75 11.9654 37.8416 11.9654H44.6464V46.0165Z" fill="#112437"/>
<path d="M33.7219 30.1692H25.5106V22.0218C25.5106 21.6473 25.2 21.3367 24.8255 21.3367C19.5461 21.3367 15.2441 25.6388 15.2441 30.9181C15.2441 36.2066 19.5462 40.4995 24.8255 40.4995C30.114 40.4995 34.4069 36.2066 34.4069 30.8542C34.4069 30.4798 34.0964 30.1692 33.7219 30.1692ZM24.8255 39.1295C20.2952 39.1295 16.6142 35.4486 16.6142 30.9182C16.6142 26.6254 19.9298 23.0905 24.1405 22.7435V30.8543C24.1405 31.2288 24.4511 31.5394 24.8255 31.5394H33.0095C32.6989 35.7774 29.1458 39.1295 24.8255 39.1295Z" fill="#112437"/>
<path d="M38.965 26.2873C38.9742 26.6618 38.6637 26.9724 38.28 26.9724H29.3928C29.0092 26.9724 28.7078 26.671 28.7078 26.2873V17.464C28.7078 17.0804 29.0092 16.779 29.3928 16.779C34.6356 16.779 38.9285 21.0445 38.965 26.2873Z" fill="#112437"/>
</svg>
