<svg width="58" height="57" viewBox="0 0 58 57" fill="none" xmlns="http://www.w3.org/2000/svg">
<path d="M11.5615 46.2679V53.2691C11.5615 55.3265 9.88229 57 7.81801 57H3.74344C1.67917 57 0 55.3265 0 53.2691V46.2679C0 44.2105 1.67917 42.5369 3.74344 42.5369H7.81801C9.88229 42.5369 11.5615 44.2105 11.5615 46.2679ZM23.2924 35.5972H19.2255C17.1612 35.5972 15.4821 37.2707 15.4821 39.3281V53.2691C15.4821 55.3265 17.1612 57 19.2255 57H23.2924C25.3567 57 27.0358 55.3265 27.0358 53.2691V39.3281C27.0358 37.2707 25.3567 35.5972 23.2924 35.5972ZM25.4953 53.2689C25.4953 54.4819 24.5094 55.4644 23.2924 55.4644H19.2255C18.0085 55.4644 17.0227 54.4819 17.0227 53.2689V39.3279C17.0227 38.115 18.0087 37.1323 19.2255 37.1323H23.2924C24.5094 37.1323 25.4953 38.115 25.4953 39.3279V53.2689ZM42.5178 31.5284V53.2689C42.5178 55.3263 40.8386 56.9999 38.7743 56.9999H34.7075C32.6432 56.9999 30.964 55.3263 30.964 53.2689V31.5284C30.964 29.471 32.6432 27.7975 34.7075 27.7975H38.7743C40.8388 27.7976 42.5178 29.4712 42.5178 31.5284ZM54.2564 16.9427H50.1818C48.1253 16.9427 46.4461 18.6163 46.4461 20.6736V53.2691C46.4461 55.3265 48.1253 57 50.1818 57H54.2566C56.3208 57 58 55.3265 58 53.2691V20.6736C57.9999 18.6163 56.3207 16.9427 54.2564 16.9427ZM56.4594 53.2689C56.4594 54.4819 55.4734 55.4644 54.2566 55.4644H50.1818C48.9725 55.4644 47.9867 54.4819 47.9867 53.2689V20.6735C47.9867 19.4606 48.9725 18.478 50.1818 18.478H54.2566C55.4736 18.478 56.4594 19.4607 56.4594 20.6735V53.2689ZM51.0942 8.64601C51.2938 8.68926 51.5024 8.65176 51.6743 8.54176C51.8461 8.43176 51.9671 8.25825 52.0107 8.05937L53.2893 2.20549C53.3109 2.10699 53.3128 2.00522 53.2949 1.90599C53.277 1.80676 53.2397 1.71202 53.185 1.62718C53.1303 1.54235 53.0594 1.46909 52.9763 1.41159C52.8932 1.35409 52.7996 1.31347 52.7007 1.29207L46.8272 0.0176697C46.7284 -0.003844 46.6263 -0.00573168 46.5267 0.0121132C46.4271 0.0299581 46.3321 0.0671861 46.247 0.121669C46.1618 0.176152 46.0883 0.246822 46.0306 0.329637C45.9729 0.412452 45.9322 0.505788 45.9107 0.604311C45.8891 0.70281 45.8872 0.804583 45.9051 0.903812C45.923 1.00304 45.9604 1.09778 46.0151 1.18261C46.0697 1.26744 46.1406 1.34071 46.2237 1.39821C46.3068 1.45571 46.4005 1.49633 46.4993 1.51773L50.5491 2.39637L5.35976 31.7457C5.19412 31.8592 5.07955 32.0327 5.04051 32.2293C5.00146 32.4258 5.04102 32.6298 5.15074 32.7976C5.26047 32.9655 5.43167 33.084 5.62783 33.1278C5.82398 33.1716 6.02955 33.1373 6.20067 33.0322L51.3901 3.6827L50.5056 7.73259C50.484 7.83109 50.4821 7.93286 50.5 8.03208C50.518 8.1313 50.5553 8.22603 50.61 8.31086C50.6646 8.39569 50.7355 8.46895 50.8186 8.52645C50.9017 8.58396 50.9953 8.62459 51.0942 8.64601Z" fill="#112437"/>
</svg>
