<svg width="51" height="58" viewBox="0 0 51 58" fill="none" xmlns="http://www.w3.org/2000/svg">
<path d="M25.3478 0C21.3149 0 18.0252 3.28973 18.0252 7.33147C18.0252 11.3643 21.3149 14.654 25.3478 14.654C29.3896 14.654 32.6792 11.3643 32.6792 7.33147C32.6793 3.28973 29.3897 0 25.3478 0ZM25.3478 12.8416C22.3118 12.8416 19.8377 10.3675 19.8377 7.3316C19.8377 4.28664 22.3118 1.81254 25.3478 1.81254C28.3927 1.81254 30.8668 4.28664 30.8668 7.3316C30.8668 10.3675 28.3928 12.8416 25.3478 12.8416ZM45.4757 45.8019V42.6209C45.4757 39.9929 43.3278 37.8541 40.6997 37.8541H26.2631V33.1235C33.7578 32.4347 35.2078 25.1756 35.5249 24.7044C36.9115 21.1065 34.2471 17.2279 30.3865 17.2279H20.3181C16.4666 17.2279 13.8022 21.1066 15.1888 24.7044C15.515 25.1937 16.9378 32.4347 24.4507 33.1235V37.8541H10.0051C7.37689 37.8541 5.23814 39.9929 5.23814 42.6209V45.8019C2.27474 46.2459 0 48.7925 0 51.8737C0 55.254 2.75501 58 6.14436 58C9.52467 58 12.2797 55.254 12.2797 51.8737C12.2797 48.7925 10.0049 46.2459 7.05057 45.8019V42.6209C7.05057 40.9897 8.37368 39.6666 10.0049 39.6666H24.4506V45.8019C21.4872 46.2459 19.2124 48.7925 19.2124 51.8737C19.2124 55.254 21.9674 58 25.3568 58C28.7371 58 31.4921 55.254 31.4921 51.8737C31.4921 48.7925 29.2175 46.2459 26.2631 45.8019V39.6666H40.6997C42.331 39.6666 43.6631 40.9897 43.6631 42.6209V45.8019C40.6997 46.2459 38.425 48.7925 38.425 51.8737C38.425 55.254 41.18 58 44.5693 58C47.9496 58 50.7047 55.254 50.7047 51.8737C50.7047 48.7925 48.4299 46.2459 45.4757 45.8019ZM25.3569 31.3562C18.4965 31.3562 17.1734 24.487 16.8743 24.0519C15.9501 21.6322 17.7262 19.0403 20.3181 19.0403H30.3865C31.6191 19.0403 32.7246 19.6203 33.4315 20.6353C34.1293 21.6593 34.2743 22.9009 33.8302 24.0519C33.4859 24.5503 32.2172 31.3562 25.3569 31.3562Z" fill="#112437"/>
</svg>
