<svg width="60" height="58" viewBox="0 0 60 58" fill="none" xmlns="http://www.w3.org/2000/svg">
<path d="M53.7079 27.1784V27.1513C53.7079 25.1484 52.0918 23.5263 50.1057 23.5263H45.9439V16.0044C45.9439 7.17753 38.7846 0 30.0004 0C21.2071 0 14.0569 7.17753 14.0569 16.0044V23.8253H9.89476C7.96275 23.8253 6.40095 25.3478 6.30159 27.26C2.82577 27.2691 0 30.1056 0 33.5947C0 37.0746 2.81677 39.9112 6.28347 39.9204V40.165C6.28347 42.1678 7.89951 43.79 9.89464 43.79H14.9594C15.4559 43.79 15.8621 43.3821 15.8621 42.8838V16.0044C15.8621 8.18348 22.1999 1.81254 30.0001 1.81254C37.7913 1.81254 44.138 8.18348 44.138 16.0044V48.43C44.138 50.9857 42.0615 53.07 39.5066 53.07H35.8321C35.4259 51.2847 33.837 49.9434 31.932 49.9434H28.059C25.8471 49.9434 24.0505 51.7559 24.0505 53.9762C24.0505 56.1965 25.847 58 28.059 58H31.932C33.837 58 35.4259 56.6677 35.8321 54.8825H39.5066C43.0546 54.8825 45.9435 51.9825 45.9435 48.43V43.4909H50.1054C52.0915 43.4909 53.7075 41.8687 53.7075 39.8659V39.8297C57.1742 39.8206 60 36.9931 60 33.504C60.0004 30.024 57.1746 27.1874 53.7079 27.1784ZM6.28359 38.1077C3.8099 38.0987 1.80577 36.0777 1.80577 33.5946C1.80577 31.1115 3.81002 29.0905 6.28359 29.0725V38.1077ZM53.7079 38.0261V28.9908C56.1816 28.9998 58.1948 31.0208 58.1948 33.5039C58.1947 35.9871 56.1816 38.0081 53.7079 38.0261Z" fill="#112437"/>
</svg>
