<svg width="59" height="60" viewBox="0 0 59 60" fill="none" xmlns="http://www.w3.org/2000/svg">
<g filter="url(#filter0_f_19_2516)">
<path d="M32.5859 19.6262C31.8535 18.519 30.6239 17.858 29.2948 17.8568C29.2937 17.8568 29.2927 17.8561 29.2917 17.8561C29.2906 17.8561 29.2896 17.8568 29.2885 17.8568C27.9595 17.858 26.7298 18.519 25.9983 19.6253L17.2838 32.7599C16.3979 34.0888 16.3979 35.806 17.2821 37.1322L18.6275 39.1646C18.9062 39.5862 19.4742 39.7018 19.896 39.423C19.9963 39.3567 20.0826 39.2713 20.1498 39.1717C20.2171 39.072 20.264 38.9601 20.288 38.8423C20.312 38.7245 20.3126 38.6031 20.2897 38.4851C20.2667 38.3671 20.2208 38.2547 20.1544 38.1545L18.8073 36.1194C18.575 35.7723 18.4512 35.364 18.4513 34.9464C18.4515 34.5288 18.5757 34.1206 18.8082 33.7737L27.5244 20.6364C27.7424 20.3066 28.0383 20.0625 28.3763 19.901V30.0121C27.0043 30.4122 25.993 31.6678 25.993 33.1684C25.993 34.9894 27.4724 36.4707 29.2917 36.4707C31.1118 36.4707 32.5931 34.9895 32.5931 33.1684C32.5931 31.6677 31.5803 30.4118 30.207 30.0118V19.9011C30.5451 20.0628 30.8412 20.3073 31.0599 20.6381L35.1426 26.7806C35.4224 27.2012 35.9909 27.3138 36.412 27.0363C36.6142 26.9018 36.7547 26.6925 36.8026 26.4545C36.8506 26.2164 36.802 25.9691 36.6677 25.7668L32.5859 19.6262ZM30.7623 33.1684C30.7623 33.9797 30.1025 34.6399 29.2917 34.6399C28.4826 34.6399 27.8238 33.9797 27.8238 33.1684C27.8238 32.3571 28.4826 31.6973 29.2917 31.6973C30.1025 31.6974 30.7623 32.3572 30.7623 33.1684Z" fill="#41A5FA"/>
</g>
<path d="M32.5861 19.6262C31.8537 18.519 30.624 17.8579 29.295 17.8568C29.2938 17.8568 29.2929 17.856 29.2918 17.856C29.2908 17.856 29.2897 17.8568 29.2887 17.8568C27.9596 17.8579 26.73 18.519 25.9985 19.6252L17.284 32.7598C16.398 34.0887 16.398 35.806 17.2822 37.1322L18.6277 39.1646C18.9063 39.5861 19.4743 39.7018 19.8962 39.423C19.9965 39.3567 20.0827 39.2713 20.15 39.1716C20.2172 39.072 20.2642 38.9601 20.2882 38.8423C20.3122 38.7245 20.3128 38.6031 20.2898 38.4851C20.2669 38.367 20.221 38.2547 20.1546 38.1544L18.8074 36.1194C18.5752 35.7722 18.4513 35.364 18.4515 34.9464C18.4517 34.5287 18.5759 34.1206 18.8084 33.7736L27.5245 20.6363C27.7426 20.3066 28.0385 20.0625 28.3765 19.901V30.012C27.0044 30.4122 25.9931 31.6678 25.9931 33.1684C25.9931 34.9893 27.4726 36.4707 29.2918 36.4707C31.112 36.4707 32.5932 34.9894 32.5932 33.1684C32.5932 31.6677 31.5805 30.4118 30.2072 30.0118V19.9011C30.5453 20.0628 30.8414 20.3073 31.0601 20.6381L35.1428 26.7806C35.4226 27.2012 35.9911 27.3138 36.4121 27.0363C36.6143 26.9018 36.7548 26.6925 36.8028 26.4545C36.8507 26.2164 36.8022 25.9691 36.6678 25.7668L32.5861 19.6262ZM30.7624 33.1684C30.7624 33.9796 30.1027 34.6399 29.2918 34.6399C28.4828 34.6399 27.8239 33.9796 27.8239 33.1684C27.8239 32.3571 28.4828 31.6973 29.2918 31.6973C30.1027 31.6974 30.7624 32.3572 30.7624 33.1684Z" fill="#41A5FA"/>
<path d="M41.6649 49.5338V54.7609C41.6649 57.26 39.6326 59.2923 37.1334 59.2923H21.4524C18.9532 59.2923 16.9209 57.26 16.9209 54.7609V49.5338C16.9209 47.0347 18.9532 45.0024 21.4524 45.0024H22.505L20.9581 42.668C20.6742 42.2469 20.7932 41.6793 21.2143 41.4048C21.6355 41.1209 22.2031 41.24 22.4776 41.6611L24.7021 45.0024H33.8838L39.7882 36.1228C40.2642 35.4088 40.2642 34.4841 39.7882 33.7793L37.4814 30.2915C37.1975 29.8704 37.3166 29.3028 37.7377 29.0282C38.1588 28.7444 38.7264 28.8635 39.0009 29.2845L41.3078 32.7631C42.1957 34.0905 42.1957 35.8024 41.3078 37.1388L36.0807 45.0023H37.1336C39.6326 45.0024 41.6649 47.0346 41.6649 49.5338Z" fill="#112437"/>
<path d="M53.7233 24.8116C51.9926 16.6256 46.2382 9.90687 38.6323 6.83035H48.2671C48.7017 9.26539 50.8301 11.1209 53.3878 11.1209C56.2548 11.1209 58.5871 8.78539 58.5871 5.91441C58.5871 3.04344 56.2548 0.708008 53.3878 0.708008C50.8298 0.708008 48.7012 2.56414 48.267 4.99953H34.4111C33.9775 2.56414 31.8519 0.708008 29.2972 0.708008C26.7393 0.708008 24.6107 2.56414 24.1764 4.99953H10.3194C9.88582 2.56414 7.76039 0.708008 5.20652 0.708008C2.33602 0.708008 0 3.04355 0 5.91453C0 8.78551 2.3359 11.1211 5.20652 11.1211C7.76016 11.1211 9.88535 9.26551 10.3193 6.83047H19.9528C12.3455 9.90746 6.59027 16.6266 4.86023 24.8122C2.15121 24.9918 0.000117179 27.2476 0.000117179 30.0016C0.000117179 32.8726 2.33602 35.2081 5.20664 35.2081C8.0727 35.2081 10.4051 32.8726 10.4051 30.0016C10.4051 27.6468 8.83488 25.6545 6.6893 25.0133C8.61586 16.2425 15.538 9.32012 24.3077 7.39273C24.9468 9.54535 26.9405 11.1211 29.2973 11.1211C31.6511 11.1211 33.6416 9.54582 34.2799 7.39344C43.0486 9.32105 49.9695 16.2436 51.8951 25.0154C49.7501 25.6591 48.1815 27.6496 48.1815 30.0016C48.1815 32.8726 50.5174 35.2081 53.388 35.2081C56.255 35.2081 58.5873 32.8726 58.5873 30.0016C58.5871 27.2439 56.4338 24.9862 53.7233 24.8116ZM8.57414 30.0015C8.57414 31.8628 7.06336 33.3771 5.20652 33.3771C3.34523 33.3771 1.83094 31.8627 1.83094 30.0015C1.83094 28.1398 3.34535 26.6254 5.20652 26.6254C7.06336 26.6254 8.57414 28.1398 8.57414 30.0015ZM53.3878 2.53883C55.2455 2.53883 56.7563 4.05324 56.7563 5.91441C56.7563 7.77559 55.2455 9.29 53.3878 9.29C51.5265 9.29 50.0122 7.77559 50.0122 5.91441C50.0122 4.05324 51.5265 2.53883 53.3878 2.53883ZM5.20652 9.29012C3.34523 9.29012 1.83094 7.7757 1.83094 5.91453C1.83094 4.05336 3.34535 2.53895 5.20652 2.53895C7.06043 2.53895 8.5684 4.04867 8.5732 5.90598C8.5732 5.90914 8.57133 5.91184 8.57133 5.915C8.57133 5.91805 8.57297 5.92063 8.57309 5.92367C8.56805 7.78062 7.0602 9.29012 5.20652 9.29012ZM29.2972 9.29012C27.4359 9.29012 25.9216 7.7757 25.9216 5.91453C25.9216 4.05336 27.4361 2.53895 29.2972 2.53895C31.1539 2.53895 32.6639 4.05184 32.6654 5.91184C32.6654 5.91301 32.6648 5.91383 32.6648 5.915C32.6648 5.91605 32.6654 5.91676 32.6654 5.91781C32.6636 7.77734 31.1537 9.29012 29.2972 9.29012ZM53.3878 33.3772C51.5265 33.3772 50.0122 31.8628 50.0122 30.0016C50.0122 28.14 51.5266 26.6255 53.3878 26.6255C55.2455 26.6255 56.7563 28.14 56.7563 30.0016C56.7563 31.8628 55.2455 33.3772 53.3878 33.3772Z" fill="#112437"/>
<defs>
<filter id="filter0_f_19_2516" x="15.6191" y="16.8561" width="22.2015" height="23.7189" filterUnits="userSpaceOnUse" color-interpolation-filters="sRGB">
<feFlood flood-opacity="0" result="BackgroundImageFix"/>
<feBlend mode="normal" in="SourceGraphic" in2="BackgroundImageFix" result="shape"/>
<feGaussianBlur stdDeviation="0.5" result="effect1_foregroundBlur_19_2516"/>
</filter>
</defs>
</svg>
