<svg width="55" height="41" viewBox="0 0 55 41" fill="none" xmlns="http://www.w3.org/2000/svg">
<path d="M44.8439 0.000732422H10.1555C4.82715 0.000732422 0.648438 4.3221 0.648438 9.50768V31.5006C0.648438 36.7365 4.91104 40.9993 10.1555 40.9993H44.8439C50.0883 40.9993 54.351 36.7367 54.351 31.5006V9.50768C54.351 4.25496 50.1051 0.000732422 44.8439 0.000732422ZM52.6727 31.5006C52.6727 35.8136 49.1653 39.321 44.8439 39.321H10.1555C5.8425 39.321 2.32669 35.8136 2.32669 31.5006V9.50768C2.32669 7.84629 2.85531 6.25204 3.82028 4.92624L20.2247 24.4941C22.0371 26.6506 24.6887 27.884 27.4997 27.884C30.3107 27.884 32.9623 26.6506 34.7748 24.4941L51.1876 4.92624C52.1526 6.25204 52.6729 7.83791 52.6729 9.50768L52.6727 31.5006Z" fill="#112437"/>
</svg>
