<svg width="42" height="42" viewBox="0 0 42 42" fill="none" xmlns="http://www.w3.org/2000/svg">
<path d="M18.1868 2.88425C18.0681 2.74585 18.0092 2.56598 18.0231 2.38419C18.0371 2.2024 18.1226 2.03358 18.261 1.91488L19.3431 0.988126C19.8103 0.604934 20.3958 0.395508 21 0.395508C21.6042 0.395508 22.1897 0.604934 22.6569 0.988126L23.739 1.91556C23.8717 2.0358 23.9522 2.20303 23.9634 2.38171C23.9747 2.5604 23.9158 2.73642 23.7993 2.87236C23.6828 3.0083 23.5179 3.09343 23.3396 3.10965C23.1613 3.12586 22.9837 3.07188 22.8446 2.95919L21.7618 2.03175C21.547 1.85545 21.2778 1.75908 21 1.75908C20.7222 1.75908 20.453 1.85545 20.2383 2.03175L19.1561 2.95988C19.0174 3.07806 18.8375 3.13645 18.6558 3.12228C18.4741 3.1081 18.3055 3.02251 18.1868 2.88425ZM41.625 18.8274V38.1874C41.6239 39.0987 41.2614 39.9724 40.617 40.6168C39.9726 41.2613 39.0989 41.6238 38.1875 41.6249H3.8125C2.90115 41.6238 2.02745 41.2613 1.38303 40.6168C0.738607 39.9724 0.376093 39.0987 0.375001 38.1874V18.8274C0.374652 18.3314 0.481773 17.8412 0.688993 17.3906C0.896213 16.9399 1.19861 16.5395 1.57538 16.2169L2.67813 15.273C2.81661 15.1543 2.99658 15.0955 3.17843 15.1095C3.36029 15.1235 3.52914 15.2091 3.64785 15.3476C3.76655 15.4861 3.82537 15.666 3.81138 15.8479C3.79739 16.0298 3.71174 16.1986 3.57325 16.3173L2.47119 17.2619C2.35555 17.3615 2.25133 17.4735 2.16044 17.5961L20.2383 33.093C20.453 33.2693 20.7222 33.3657 21 33.3657C21.2778 33.3657 21.547 33.2693 21.7618 33.093L39.8403 17.5954C39.7494 17.4728 39.6451 17.3608 39.5295 17.2613L38.4274 16.3166C38.3589 16.2579 38.3025 16.1861 38.2617 16.1056C38.2208 16.0251 38.1962 15.9373 38.1893 15.8472C38.1824 15.7572 38.1933 15.6666 38.2213 15.5808C38.2494 15.495 38.2941 15.4155 38.3528 15.3469C38.4116 15.2783 38.4833 15.222 38.5639 15.1812C38.6444 15.1403 38.7322 15.1157 38.8223 15.1088C38.9123 15.1018 39.0028 15.1127 39.0887 15.1408C39.1745 15.1688 39.254 15.2135 39.3226 15.2723L40.4246 16.2169C40.8014 16.5395 41.1038 16.9399 41.311 17.3906C41.5182 17.8412 41.6254 18.3314 41.625 18.8274ZM40.25 38.1874V19.0549L28.3563 29.2512L39.9681 39.2076C40.1503 38.8983 40.2476 38.5463 40.25 38.1874ZM13.6438 29.2512L1.75 19.0556V38.1874C1.75228 38.5463 1.84927 38.8982 2.03119 39.2076L13.6438 29.2512ZM38.1875 40.2499C38.4352 40.2483 38.6805 40.2017 38.9114 40.1124L27.2996 30.1574L22.6569 34.1366C22.1955 34.5322 21.6078 34.7496 21 34.7496C20.3923 34.7496 19.8046 34.5322 19.3431 34.1366L14.7004 30.1574L3.08856 40.1124C3.31954 40.2017 3.56485 40.2483 3.8125 40.2499H38.1875ZM5.875 18.7511C6.05734 18.7511 6.23221 18.6786 6.36114 18.5497C6.49007 18.4208 6.5625 18.2459 6.5625 18.0636V7.93738C6.56305 7.39053 6.78052 6.86625 7.1672 6.47957C7.55387 6.0929 8.07816 5.87542 8.625 5.87488H33.375C33.9218 5.87542 34.4461 6.0929 34.8328 6.47957C35.2195 6.86625 35.437 7.39053 35.4375 7.93738V18.0636C35.4375 18.2459 35.5099 18.4208 35.6389 18.5497C35.7678 18.6786 35.9427 18.7511 36.125 18.7511C36.3073 18.7511 36.4822 18.6786 36.6111 18.5497C36.7401 18.4208 36.8125 18.2459 36.8125 18.0636V7.93738C36.8114 7.02603 36.4489 6.15232 35.8045 5.5079C35.1601 4.86348 34.2864 4.50097 33.375 4.49988H8.625C7.71366 4.50097 6.83995 4.86348 6.19553 5.5079C5.55111 6.15232 5.18859 7.02603 5.1875 7.93738V18.0636C5.1875 18.2459 5.25993 18.4208 5.38887 18.5497C5.5178 18.6786 5.69266 18.7511 5.875 18.7511ZM13.4375 23.0624V19.3843C12.5202 19.0604 11.7469 18.4226 11.2546 17.5836C10.7622 16.7445 10.5824 15.7584 10.747 14.7996C10.9116 13.8409 11.41 12.9712 12.154 12.3444C12.898 11.7177 13.8397 11.3742 14.8125 11.3749H16.875C21.2509 11.3749 23.1244 8.99819 23.2021 8.89713C23.2893 8.78278 23.4101 8.69861 23.5476 8.65645C23.685 8.61429 23.8323 8.61626 23.9686 8.66207C24.1049 8.70789 24.2234 8.79525 24.3075 8.91189C24.3916 9.02852 24.4371 9.16858 24.4375 9.31238V13.4374H25.125C25.672 13.4374 26.1966 13.6547 26.5834 14.0415C26.9702 14.4283 27.1875 14.9529 27.1875 15.4999C27.1875 16.0469 26.9702 16.5715 26.5834 16.9583C26.1966 17.3451 25.672 17.5624 25.125 17.5624H24.4375V21.6874C24.4375 21.8317 24.3921 21.9723 24.3077 22.0894C24.2234 22.2064 24.1043 22.294 23.9674 22.3396C23.8305 22.3852 23.6827 22.3866 23.545 22.3436C23.4073 22.3006 23.2866 22.2153 23.2 22.0999C23.1285 22.0071 21.4455 19.8793 17.5625 19.6483V23.0624C17.5625 23.6094 17.3452 24.134 16.9584 24.5208C16.5716 24.9076 16.047 25.1249 15.5 25.1249C14.953 25.1249 14.4284 24.9076 14.0416 24.5208C13.6548 24.134 13.4375 23.6094 13.4375 23.0624ZM24.4375 14.8124V16.1874H25.125C25.3073 16.1874 25.4822 16.1149 25.6111 15.986C25.7401 15.8571 25.8125 15.6822 25.8125 15.4999C25.8125 15.3175 25.7401 15.1427 25.6111 15.0137C25.4822 14.8848 25.3073 14.8124 25.125 14.8124H24.4375ZM16.1875 23.0624V19.6249H14.8125V23.0624C14.8125 23.2447 14.8849 23.4196 15.0139 23.5485C15.1428 23.6774 15.3177 23.7499 15.5 23.7499C15.6823 23.7499 15.8572 23.6774 15.9861 23.5485C16.1151 23.4196 16.1875 23.2447 16.1875 23.0624ZM17.5625 12.721V18.2788C19.5365 18.3394 21.449 18.979 23.0625 20.1178V10.8819C21.449 12.0208 19.5365 12.6603 17.5625 12.721ZM14.8125 18.2499H16.1875V12.7499H14.8125C14.0832 12.7499 13.3837 13.0396 12.868 13.5553C12.3522 14.0711 12.0625 14.7705 12.0625 15.4999C12.0625 16.2292 12.3522 16.9287 12.868 17.4444C13.3837 17.9601 14.0832 18.2499 14.8125 18.2499Z" fill="#112437"/>
<path d="M29.2499 14.8123H30.6249C30.8072 14.8123 30.9821 14.8847 31.111 15.0137C31.24 15.1426 31.3124 15.3175 31.3124 15.4998C31.3124 15.6821 31.24 15.857 31.111 15.9859C30.9821 16.1149 30.8072 16.1873 30.6249 16.1873H29.2499C29.0676 16.1873 28.8927 16.1149 28.7638 15.9859C28.6348 15.857 28.5624 15.6821 28.5624 15.4998C28.5624 15.3175 28.6348 15.1426 28.7638 15.0137C28.8927 14.8847 29.0676 14.8123 29.2499 14.8123Z" fill="#41A5FA"/>
<path d="M29.0321 17.5974C29.2051 17.5396 29.394 17.553 29.5572 17.6345L30.9322 18.322C31.013 18.3623 31.0851 18.4182 31.1443 18.4864C31.2035 18.5546 31.2487 18.6338 31.2773 18.7195C31.3059 18.8052 31.3174 18.8957 31.311 18.9857C31.3046 19.0758 31.2806 19.1638 31.2402 19.2446C31.1999 19.3254 31.144 19.3975 31.0758 19.4567C31.0076 19.5159 30.9284 19.5611 30.8427 19.5897C30.6697 19.6475 30.4808 19.6341 30.3176 19.5526L28.9426 18.8651C28.7794 18.7836 28.6553 18.6406 28.5975 18.4676C28.5398 18.2946 28.5531 18.1057 28.6346 17.9425C28.7161 17.7793 28.8591 17.6552 29.0321 17.5974Z" fill="#41A5FA"/>
<path d="M29.5572 13.3651C29.462 13.4127 29.357 13.4374 29.2506 13.4373C29.0956 13.4374 28.9444 13.3852 28.8228 13.2891C28.7012 13.1929 28.6157 13.0585 28.5801 12.9076C28.5445 12.7568 28.561 12.5983 28.6268 12.458C28.6926 12.3176 28.8039 12.2036 28.9426 12.1345L30.3176 11.447C30.4808 11.3655 30.6697 11.3521 30.8427 11.4099C30.9284 11.4385 31.0076 11.4837 31.0758 11.5429C31.144 11.6021 31.1999 11.6742 31.2402 11.755C31.2806 11.8358 31.3046 11.9238 31.311 12.0138C31.3174 12.1039 31.3059 12.1944 31.2773 12.2801C31.2487 12.3658 31.2035 12.445 31.1443 12.5132C31.0851 12.5814 31.013 12.6373 30.9322 12.6776L29.5572 13.3651Z" fill="#41A5FA"/>
</svg>
