<svg width="41" height="41" viewBox="0 0 41 41" fill="none" xmlns="http://www.w3.org/2000/svg">
<path d="M28.8512 9.21606V0.640152C28.8512 0.470373 28.9187 0.307548 29.0387 0.187496C29.1588 0.0674444 29.3216 0 29.4914 0H38.7641C38.9339 0 39.0967 0.0674444 39.2168 0.187496C39.3368 0.307548 39.4043 0.470373 39.4043 0.640152C39.4043 0.809931 39.3368 0.972756 39.2168 1.09281C39.0967 1.21286 38.9339 1.2803 38.7641 1.2803H30.1314V8.57591H38.124V5.63324L36.375 7.22041C36.2573 7.32743 36.1039 7.38666 35.9449 7.38649C35.8608 7.3866 35.7775 7.37009 35.6998 7.33792C35.6221 7.30575 35.5516 7.25855 35.4922 7.19903L33.6739 5.38075C33.4239 5.13075 33.4239 4.72547 33.6739 4.47546C33.9239 4.22545 34.3292 4.22545 34.5792 4.47546L35.9663 5.86251L39.9297 2.26584C40.0559 2.15486 40.2207 2.09796 40.3885 2.10741C40.5563 2.11686 40.7136 2.1919 40.8265 2.31635C40.9395 2.44079 40.999 2.60466 40.9922 2.77258C40.9854 2.9405 40.9128 3.09901 40.7901 3.21389L39.4043 4.47146V9.21606C39.4043 9.38584 39.3368 9.54866 39.2168 9.66872C39.0967 9.78877 38.9339 9.85621 38.7641 9.85621H29.4913C29.3215 9.85619 29.1587 9.78874 29.0387 9.66869C28.9187 9.54864 28.8512 9.38582 28.8512 9.21606ZM29.4913 25.4281H38.7641C38.9338 25.4281 39.0967 25.3606 39.2167 25.2406C39.3368 25.1205 39.4042 24.9577 39.4042 24.7879V20.0551C39.4042 20.0513 39.4037 20.0476 39.4037 20.0438L40.7901 18.7857C40.9158 18.6716 40.991 18.5123 40.9992 18.3427C41.0075 18.1731 40.948 18.0072 40.8339 17.8815C40.7198 17.7558 40.5604 17.6805 40.3908 17.6723C40.2212 17.6641 40.0553 17.7236 39.9296 17.8377L35.9662 21.4344L34.5791 20.0473C34.3291 19.7973 33.9238 19.7973 33.6738 20.0473C33.4238 20.2973 33.4238 20.7026 33.6738 20.9526L35.4921 22.7709C35.5515 22.8304 35.6221 22.8776 35.6997 22.9098C35.7774 22.9419 35.8607 22.9585 35.9448 22.9583C36.1038 22.9585 36.2572 22.8993 36.3749 22.7923L38.1239 21.2051V24.1478H30.1314V16.8545H38.7641C38.9338 16.8545 39.0967 16.787 39.2167 16.667C39.3368 16.5469 39.4042 16.3841 39.4042 16.2143C39.4042 16.0445 39.3368 15.8817 39.2167 15.7617C39.0967 15.6416 38.9338 15.5742 38.7641 15.5742H29.4913C29.3215 15.5742 29.1587 15.6416 29.0386 15.7617C28.9186 15.8817 28.8511 16.0445 28.8511 16.2143V24.7879C28.8512 24.9577 28.9186 25.1205 29.0387 25.2405C29.1587 25.3606 29.3215 25.428 29.4913 25.4281ZM40.8339 33.4535C40.7775 33.3912 40.7093 33.3407 40.6332 33.3048C40.5572 33.2689 40.4749 33.2483 40.3909 33.2443C40.3069 33.2402 40.223 33.2527 40.1438 33.2811C40.0647 33.3094 39.9919 33.3531 39.9297 33.4096L35.9663 37.0063L34.5792 35.6192C34.3292 35.3692 33.9239 35.3692 33.6739 35.6192C33.4239 35.8693 33.4239 36.2745 33.6739 36.5245L35.4922 38.3428C35.5516 38.4023 35.6221 38.4495 35.6998 38.4817C35.7775 38.5139 35.8608 38.5304 35.9449 38.5303C36.1039 38.5305 36.2573 38.4712 36.375 38.3642L38.124 36.7771V39.7198H30.1314V32.4264H38.7641C38.9339 32.4264 39.0967 32.359 39.2168 32.2389C39.3368 32.1189 39.4043 31.956 39.4043 31.7863C39.4043 31.6165 39.3368 31.4537 39.2168 31.3336C39.0967 31.2136 38.9339 31.1461 38.7641 31.1461H29.4913C29.3215 31.1461 29.1587 31.2136 29.0386 31.3336C28.9186 31.4537 28.8511 31.6165 28.8511 31.7863V40.3598C28.8511 40.5296 28.9186 40.6925 29.0386 40.8125C29.1587 40.9326 29.3215 41 29.4913 41H38.7641C38.9338 41 39.0967 40.9326 39.2167 40.8125C39.3368 40.6925 39.4042 40.5296 39.4042 40.3598V35.6153L40.7901 34.3578C40.9158 34.2437 40.991 34.0843 40.9992 33.9147C41.0075 33.7451 40.948 33.5793 40.8339 33.4535ZM27.0193 5.56822C27.1891 5.56822 27.3519 5.50077 27.472 5.38072C27.592 5.26067 27.6595 5.09784 27.6595 4.92807C27.6595 4.75829 27.592 4.59546 27.472 4.47541C27.3519 4.35536 27.1891 4.28791 27.0193 4.28791H23.7278C23.6438 4.28791 23.5605 4.30447 23.4829 4.33664C23.4052 4.36881 23.3346 4.41597 23.2752 4.47541C23.2157 4.53485 23.1686 4.60542 23.1364 4.68309C23.1042 4.76076 23.0877 4.844 23.0877 4.92807V19.8598H21.5305C21.3607 19.8598 21.1979 19.9273 21.0778 20.0473C20.9578 20.1674 20.8903 20.3302 20.8903 20.5C20.8903 20.6698 20.9578 20.8326 21.0778 20.9527C21.1979 21.0727 21.3607 21.1402 21.5305 21.1402H23.0877V36.0719C23.0877 36.156 23.1042 36.2392 23.1364 36.3169C23.1686 36.3946 23.2157 36.4651 23.2752 36.5246C23.3346 36.584 23.4052 36.6312 23.4829 36.6634C23.5605 36.6955 23.6438 36.7121 23.7278 36.7121H27.0193C27.1891 36.7121 27.3519 36.6446 27.472 36.5246C27.592 36.4045 27.6595 36.2417 27.6595 36.0719C27.6595 35.9022 27.592 35.7393 27.472 35.6193C27.3519 35.4992 27.1891 35.4318 27.0193 35.4318H24.368V21.1402H27.0193C27.1891 21.1402 27.3519 21.0727 27.472 20.9527C27.592 20.8326 27.6595 20.6698 27.6595 20.5C27.6595 20.3302 27.592 20.1674 27.472 20.0473C27.3519 19.9273 27.1891 19.8598 27.0193 19.8598H24.368V5.56822H27.0193ZM18.0204 12.9704C18.1346 13.0896 18.1983 13.2482 18.1983 13.4132V32.592C18.1983 32.7618 18.1309 32.9246 18.0108 33.0447C17.8908 33.1647 17.7279 33.2322 17.5581 33.2322H0.640153C0.556086 33.2322 0.472844 33.2156 0.395177 33.1834C0.31751 33.1513 0.24694 33.1041 0.187496 33.0447C0.0674445 32.9246 0 32.7618 0 32.592V8.40798C0 8.2382 0.0674445 8.07538 0.187496 7.95533C0.307548 7.83527 0.470374 7.76783 0.640153 7.76783H12.764C12.9385 7.76783 13.1055 7.8391 13.2263 7.96514L18.0204 12.9704ZM13.193 12.7731H16.0586L13.193 9.78134V12.7731ZM16.9181 31.9519V14.0533H12.553C12.3832 14.0533 12.2204 13.9859 12.1003 13.8658C11.9803 13.7458 11.9128 13.5829 11.9128 13.4132V9.04805H1.2803V31.9519H16.9181Z" fill="black"/>
<path d="M3.71828 17.751H14.4801C14.5642 17.751 14.6474 17.7675 14.7251 17.7997C14.8028 17.8319 14.8733 17.879 14.9328 17.9384C14.9922 17.9979 15.0394 18.0685 15.0716 18.1461C15.1037 18.2238 15.1203 18.307 15.1203 18.3911C15.1203 18.4752 15.1038 18.5584 15.0716 18.6361C15.0394 18.7137 14.9923 18.7843 14.9328 18.8438C14.8734 18.9032 14.8028 18.9504 14.7252 18.9825C14.6475 19.0147 14.5643 19.0313 14.4802 19.0313H3.71828C3.5485 19.0313 3.38567 18.9638 3.26562 18.8438C3.14557 18.7237 3.07812 18.5609 3.07812 18.3911C3.07812 18.2213 3.14557 18.0585 3.26562 17.9385C3.38567 17.8184 3.5485 17.751 3.71828 17.751Z" fill="#41A5FA"/>
<path d="M3.71828 21.9709H14.4801C14.5642 21.9709 14.6474 21.9875 14.7251 22.0196C14.8028 22.0518 14.8733 22.0989 14.9328 22.1584C14.9922 22.2178 15.0394 22.2884 15.0716 22.366C15.1037 22.4437 15.1203 22.5269 15.1203 22.611C15.1203 22.6951 15.1038 22.7783 15.0716 22.856C15.0394 22.9337 14.9923 23.0042 14.9328 23.0637C14.8734 23.1231 14.8028 23.1703 14.7252 23.2025C14.6475 23.2346 14.5643 23.2512 14.4802 23.2512H3.71828C3.5485 23.2512 3.38567 23.1838 3.26562 23.0637C3.14557 22.9437 3.07812 22.7808 3.07812 22.6111C3.07812 22.4413 3.14557 22.2785 3.26562 22.1584C3.38567 22.0383 3.5485 21.9709 3.71828 21.9709Z" fill="#41A5FA"/>
<path d="M3.71828 26.1907H14.4801C14.6499 26.1907 14.8127 26.2581 14.9328 26.3781C15.0528 26.4982 15.1203 26.661 15.1203 26.8308C15.1203 27.0006 15.0529 27.1634 14.9328 27.2835C14.8128 27.4035 14.65 27.471 14.4802 27.471H3.71828C3.5485 27.471 3.38567 27.4035 3.26562 27.2835C3.14557 27.1634 3.07812 27.0006 3.07812 26.8308C3.07812 26.661 3.14557 26.4982 3.26562 26.3782C3.38567 26.2581 3.5485 26.1907 3.71828 26.1907Z" fill="#41A5FA"/>
<path d="M9.97886 14.8091H3.71828C3.5485 14.8091 3.38567 14.7417 3.26562 14.6216C3.14557 14.5016 3.07812 14.3387 3.07812 14.169C3.07812 13.9992 3.14557 13.8364 3.26562 13.7163C3.38567 13.5963 3.5485 13.5288 3.71828 13.5288H9.97886C10.1486 13.5288 10.3115 13.5963 10.4315 13.7163C10.5516 13.8364 10.619 13.9992 10.619 14.169C10.619 14.3387 10.5516 14.5016 10.4315 14.6216C10.3115 14.7417 10.1486 14.8091 9.97886 14.8091Z" fill="#41A5FA"/>
</svg>
