<svg width="41" height="41" viewBox="0 0 41 41" fill="none" xmlns="http://www.w3.org/2000/svg">
<mask id="mask0_44_5244" style="mask-type:luminance" maskUnits="userSpaceOnUse" x="0" y="0" width="41" height="41">
<path d="M40.5 40.5V0.5H0.5V40.5H40.5Z" fill="white" stroke="white"/>
</mask>
<g mask="url(#mask0_44_5244)">
<path d="M24.0786 14.6765C24.8992 13.1996 26.4751 12.2 28.2846 12.2C30.94 12.2 33.0926 14.3527 33.0926 17.0081C33.0926 17.7802 32.9107 18.5098 32.5872 19.1562" stroke="#112437" stroke-miterlimit="10" stroke-linecap="round" stroke-linejoin="round"/>
<path d="M30.7015 21.1656C29.9913 21.5794 29.1655 21.8164 28.2843 21.8164C27.8292 21.8164 27.3887 21.7532 26.9714 21.6349" stroke="#112437" stroke-miterlimit="10" stroke-linecap="round" stroke-linejoin="round"/>
<path d="M24.0144 24.7425C24.4576 24.9878 24.9212 25.1942 25.3999 25.3595C25.7473 25.4794 25.9839 25.8018 25.9839 26.1693V27.5796C25.9839 28.0509 26.3661 28.4331 26.8374 28.4331H29.732C30.2033 28.4331 30.5855 28.0509 30.5855 27.5796V26.1693C30.5855 25.8018 30.8221 25.4794 31.1696 25.3595C32.3142 24.9636 33.3651 24.3365 34.257 23.517C34.3877 23.3967 34.5528 23.3202 34.7291 23.2983C34.9054 23.2763 35.0842 23.31 35.2405 23.3946L36.4828 24.0678C36.8972 24.2923 37.4153 24.1384 37.6399 23.724L39.019 21.1791C39.2435 20.7647 39.0896 20.2466 38.6752 20.0222L37.4341 19.3495C37.1128 19.1754 36.9403 18.8168 36.9999 18.4563C37.0789 17.9777 37.1185 17.4934 37.1183 17.0084C37.1183 16.5152 37.0777 16.0316 36.9999 15.5605C36.9403 15.2 37.1128 14.8412 37.4341 14.6672L38.6752 13.9945C39.0896 13.7701 39.2435 13.252 39.019 12.8376L37.6399 10.2927C37.4153 9.87828 36.8972 9.72437 36.4828 9.94891L35.2405 10.6221C35.0842 10.7067 34.9054 10.7404 34.7291 10.7184C34.5528 10.6965 34.3877 10.62 34.257 10.4997C33.3651 9.68026 32.3141 9.05311 31.1695 8.65725C30.8221 8.53729 30.5855 8.2149 30.5855 7.84742V6.43709C30.5855 5.96583 30.2033 5.58361 29.732 5.58361H26.8374C26.3661 5.58361 25.9839 5.96583 25.9839 6.43709V7.84742C25.9839 8.2149 25.7474 8.53729 25.3999 8.65725C24.2553 9.05315 23.2044 9.68029 22.3124 10.4997C22.1817 10.62 22.0166 10.6965 21.8403 10.7184C21.664 10.7404 21.4852 10.7067 21.3289 10.6221L20.0866 9.94891C19.6722 9.72437 19.1542 9.87828 18.9295 10.2927L17.5505 12.8376C17.326 13.252 17.4798 13.7701 17.8943 13.9945L19.1354 14.6672" stroke="#112437" stroke-miterlimit="10" stroke-linecap="round" stroke-linejoin="round"/>
<path d="M9.46637 14.677H28.4921C28.6681 14.677 28.837 14.7469 28.9615 14.8714C29.086 14.9959 29.156 15.1648 29.156 15.3409V19.3398H1.87793V15.3409C1.87792 15.2537 1.89508 15.1674 1.92844 15.0868C1.9618 15.0063 2.01069 14.9331 2.07234 14.8714C2.13398 14.8098 2.20717 14.7609 2.28772 14.7275C2.36826 14.6941 2.45459 14.677 2.54178 14.677H6.74372" stroke="#112437" stroke-miterlimit="10" stroke-linecap="round" stroke-linejoin="round"/>
<path d="M18.0117 34.2467V31.5414C18.0117 31.2255 18.1331 30.9218 18.3508 30.693L29.156 19.3396H1.87793L12.6831 30.693C12.9009 30.9218 13.0223 31.2255 13.0223 31.5414V37.6262C13.0223 37.7002 13.042 37.7728 13.0792 37.8367C13.1165 37.9006 13.1701 37.9535 13.2345 37.9899L17.3879 40.3397C17.6665 40.4974 18.0117 40.2961 18.0117 39.976V37.0494" stroke="#112437" stroke-miterlimit="10" stroke-linecap="round" stroke-linejoin="round"/>
<path d="M1.87793 2.82792V5.48291" stroke="#41A5FA" stroke-miterlimit="10" stroke-linecap="round" stroke-linejoin="round"/>
<path d="M11.9319 9.13888V11.7939" stroke="#41A5FA" stroke-miterlimit="10" stroke-linecap="round" stroke-linejoin="round"/>
<path d="M9.37402 0.604776V3.25977" stroke="#41A5FA" stroke-miterlimit="10" stroke-linecap="round" stroke-linejoin="round"/>
<path d="M21.5945 1.9329V4.58789" stroke="#41A5FA" stroke-miterlimit="10" stroke-linecap="round" stroke-linejoin="round"/>
<path d="M8.05969 7.5119C8.05969 8.30868 7.41378 8.95459 6.617 8.95459C5.82023 8.95459 5.17432 8.30868 5.17432 7.5119C5.17432 6.71513 5.82023 6.06921 6.617 6.06921C7.41378 6.06921 8.05969 6.71513 8.05969 7.5119Z" stroke="#41A5FA" stroke-miterlimit="10" stroke-linecap="round" stroke-linejoin="round"/>
<path d="M17.3058 5.94403C17.3058 6.74073 16.6599 7.38672 15.8631 7.38672C15.0663 7.38672 14.4204 6.74073 14.4204 5.94403C14.4204 5.14725 15.0663 4.50126 15.8631 4.50126C16.6599 4.50126 17.3058 5.14725 17.3058 5.94403Z" stroke="#41A5FA" stroke-miterlimit="10" stroke-linecap="round" stroke-linejoin="round"/>
</g>
</svg>
