<svg width="42" height="42" viewBox="0 0 42 42" fill="none" xmlns="http://www.w3.org/2000/svg">
<path d="M8.2013 31.4319C7.63314 30.4597 7.30762 29.3285 7.30762 28.1212C7.30762 24.4921 10.2496 21.5502 13.8786 21.5502C17.5077 21.5502 20.4497 24.4921 20.4497 28.1212C20.4497 31.7502 17.5077 34.6922 13.8786 34.6922C12.4804 34.6922 11.1843 34.2555 10.119 33.5111" stroke="#41A5FA" stroke-miterlimit="10" stroke-linecap="round" stroke-linejoin="round"/>
<path d="M39.0949 4.5385L38.8188 4.06024C38.761 3.96014 38.6658 3.88711 38.5542 3.8572C38.4425 3.82729 38.3236 3.84295 38.2235 3.90073L36.2391 5.04648C36.1643 5.08958 36.0785 5.10948 35.9924 5.10368C35.9064 5.09787 35.824 5.0666 35.7557 5.01386C35.2864 4.652 34.7712 4.35403 34.2235 4.12774C34.1438 4.09494 34.0757 4.03923 34.0277 3.96767C33.9798 3.8961 33.9541 3.81191 33.9541 3.72577V1.43581C33.9541 1.32022 33.9082 1.20937 33.8265 1.12764C33.7447 1.04592 33.6339 1 33.5183 1H29.8163C29.7008 1 29.5899 1.04592 29.5082 1.12764C29.4265 1.20937 29.3805 1.32022 29.3805 1.43581V3.72577C29.3805 3.81192 29.3549 3.89612 29.3069 3.96769C29.259 4.03925 29.1908 4.09496 29.1112 4.12774C28.5634 4.354 28.0482 4.65197 27.5789 5.01386C27.5107 5.0666 27.4283 5.09788 27.3422 5.1037C27.2562 5.10952 27.1703 5.08964 27.0956 5.04656L25.1111 3.90082C25.011 3.84303 24.892 3.82737 24.7804 3.85728C24.6688 3.88719 24.5736 3.96023 24.5158 4.06032L22.6648 7.26636C22.607 7.36645 22.5913 7.4854 22.6212 7.59704C22.6511 7.70868 22.7242 7.80387 22.8243 7.86167L24.8083 9.00717C24.8828 9.05026 24.9429 9.11452 24.9809 9.19181C25.0189 9.26909 25.0331 9.35592 25.0217 9.44128C24.983 9.7348 24.9637 10.0305 24.9637 10.3266C24.9637 10.6267 24.9835 10.9223 25.0217 11.212C25.0331 11.2973 25.0189 11.3842 24.9809 11.4615C24.9429 11.5387 24.8828 11.603 24.8083 11.6461L22.8243 12.7916C22.7242 12.8494 22.6511 12.9446 22.6212 13.0562C22.5913 13.1679 22.607 13.2868 22.6648 13.3869L24.5158 16.593C24.5736 16.693 24.6688 16.7661 24.7804 16.796C24.892 16.8259 25.011 16.8102 25.1111 16.7525L27.0956 15.6067C27.1703 15.5636 27.2562 15.5437 27.3422 15.5496C27.4283 15.5554 27.5107 15.5867 27.5789 15.6394C28.0482 16.0013 28.5634 16.2993 29.1112 16.5255C29.1908 16.5583 29.2589 16.614 29.3069 16.6856C29.3549 16.7572 29.3805 16.8414 29.3805 16.9275V19.2175C29.3805 19.333 29.4265 19.4439 29.5082 19.5256C29.5899 19.6074 29.7008 19.6533 29.8163 19.6533H33.5183C33.6339 19.6533 33.7447 19.6074 33.8265 19.5256C33.9082 19.4439 33.9541 19.333 33.9541 19.2175V16.9275C33.9541 16.8413 33.9797 16.7571 34.0277 16.6856C34.0757 16.614 34.1438 16.5583 34.2235 16.5255C34.7712 16.2993 35.2864 16.0013 35.7557 15.6394C35.824 15.5867 35.9064 15.5554 35.9924 15.5496C36.0785 15.5437 36.1643 15.5636 36.2391 15.6067L38.2235 16.7525C38.3236 16.8102 38.4425 16.8259 38.5542 16.796C38.6658 16.7661 38.761 16.693 38.8188 16.593L40.6698 13.3869C40.7276 13.2868 40.7432 13.1679 40.7133 13.0562C40.6834 12.9446 40.6104 12.8494 40.5103 12.7916L38.5263 11.6461C38.4517 11.603 38.3916 11.5387 38.3536 11.4615C38.3156 11.3842 38.3014 11.2973 38.3128 11.212C38.3511 10.9223 38.3708 10.6267 38.3708 10.3266C38.3708 10.0264 38.3511 9.73096 38.3128 9.4412C38.3014 9.35584 38.3156 9.26902 38.3536 9.19173C38.3916 9.11445 38.4517 9.05019 38.5263 9.00709L40.5103 7.86167C40.6104 7.80387 40.6834 7.70868 40.7133 7.59704C40.7432 7.4854 40.7276 7.36645 40.6698 7.26636L40.4516 6.88847M25.8342 26.3138H24.5747C24.4688 26.3136 24.3662 26.2771 24.284 26.2102C24.2019 26.1434 24.1452 26.0503 24.1235 25.9466C23.8568 24.6875 23.3591 23.4888 22.6556 22.4111C22.5973 22.3224 22.5714 22.2164 22.5821 22.1108C22.5929 22.0053 22.6396 21.9066 22.7145 21.8315L23.6055 20.9405C23.9659 20.5801 23.9659 19.9959 23.6055 19.6355L22.3593 18.3893C21.9989 18.0289 21.4146 18.0289 21.0542 18.3893L20.1618 19.2817C20.0867 19.3565 19.9882 19.4032 19.8827 19.414C19.7772 19.4248 19.6713 19.3989 19.5826 19.3408C18.5045 18.6383 17.3055 18.1417 16.0465 17.8761C15.9427 17.8545 15.8495 17.7979 15.7826 17.7157C15.7156 17.6335 15.679 17.5308 15.6789 17.4249V16.1658C15.6789 15.6562 15.2657 15.243 14.756 15.243H12.9936C12.484 15.243 12.0708 15.6562 12.0708 16.1658V17.4249C12.0706 17.5308 12.034 17.6335 11.9671 17.7157C11.9002 17.7979 11.807 17.8545 11.7032 17.8761C10.4434 18.1419 9.24379 18.6389 8.1652 19.342C8.07653 19.4001 7.97055 19.426 7.86507 19.4152C7.75958 19.4045 7.66102 19.3577 7.58592 19.2829L6.69763 18.3946C6.33723 18.0342 5.75295 18.0342 5.39255 18.3946L4.14635 19.6408C3.78594 20.0012 3.78594 20.5855 4.14635 20.9459L5.03383 21.8333C5.10872 21.9085 5.15547 22.0071 5.16621 22.1126C5.17694 22.2182 5.15102 22.3242 5.0928 22.4129C4.38852 23.4922 3.89066 24.6928 3.62451 25.9538C3.60291 26.0575 3.54626 26.1507 3.46409 26.2176C3.38191 26.2845 3.27921 26.3211 3.17323 26.3213H1.92285C1.41317 26.3213 1 26.7344 1 27.2441V29.0065C1 29.5162 1.41317 29.9294 1.92285 29.9294H3.17267C3.27867 29.9295 3.38139 29.9661 3.46357 30.0331C3.54574 30.1001 3.60237 30.1932 3.62394 30.297C3.88995 31.5591 4.38804 32.7607 5.09288 33.8408C5.21242 34.0242 5.18866 34.2656 5.03391 34.4203L4.15167 35.3024C3.79126 35.6629 3.79126 36.2471 4.15167 36.6075L5.39786 37.8537C5.75827 38.2141 6.34254 38.2141 6.70295 37.8537L7.58608 36.9706C7.66118 36.8957 7.75974 36.849 7.86523 36.8382C7.97071 36.8275 8.07669 36.8533 8.16536 36.9115C9.24601 37.6158 10.4481 38.1134 11.7105 38.3787C11.8143 38.4002 11.9076 38.4569 11.9746 38.5391C12.0416 38.6213 12.0782 38.724 12.0784 38.8301V40.0772C12.0784 40.5868 12.4915 41 13.0012 41H14.7636C15.2733 41 15.6865 40.5868 15.6865 40.0772V38.827C15.6866 38.7211 15.7232 38.6184 15.7901 38.5363C15.8569 38.4541 15.95 38.3975 16.0537 38.3758C17.315 38.1088 18.5158 37.61 19.595 36.9047C19.6837 36.8464 19.7898 36.8204 19.8953 36.8311C20.0009 36.8418 20.0996 36.8886 20.1748 36.9635L21.0597 37.8484C21.4201 38.2088 22.0044 38.2088 22.3648 37.8484L23.611 36.6022C23.9714 36.2418 23.9714 35.6575 23.611 35.2971L22.723 34.4092C22.6482 34.3341 22.6015 34.2356 22.5907 34.1302C22.5799 34.0247 22.6057 33.9188 22.6637 33.8301C23.3663 32.7506 23.8625 31.5502 24.1273 30.2897C24.1488 30.1858 24.2055 30.0926 24.2877 30.0255C24.3699 29.9585 24.4726 29.9219 24.5787 29.9217H25.8345C26.3441 29.9217 26.7573 29.5085 26.7573 28.9989V27.2365C26.757 26.727 26.3438 26.3138 25.8342 26.3138Z" stroke="#112437" stroke-miterlimit="10" stroke-linecap="round" stroke-linejoin="round"/>
<path d="M31.6675 14.0853C33.7434 14.0853 35.4263 12.4024 35.4263 10.3265C35.4263 8.25052 33.7434 6.56764 31.6675 6.56764C29.5916 6.56764 27.9087 8.25052 27.9087 10.3265C27.9087 12.4024 29.5916 14.0853 31.6675 14.0853Z" stroke="#41A5FA" stroke-miterlimit="10" stroke-linecap="round" stroke-linejoin="round"/>
</svg>
