<svg width="41" height="41" viewBox="0 0 41 41" fill="none" xmlns="http://www.w3.org/2000/svg">
<path d="M40.624 27.0293C39.869 25.7209 38.1891 25.2642 36.8008 25.9901L28.0827 30.5436C28.0202 30.342 27.9352 30.1461 27.8268 29.9586C27.4502 29.3061 26.8444 28.8402 26.1219 28.6469L13.3522 25.225C13.2055 25.185 13.2047 25.185 12.2189 25.505C11.0272 25.8926 8.76396 26.6276 7.64398 26.9668V25.2642C7.64398 24.9884 7.41982 24.7642 7.14399 24.7642H0.499988C0.224161 24.7642 0 24.9884 0 25.2642V40.5C0 40.7758 0.224161 41 0.499988 41H7.14399C7.41982 41 7.64398 40.7758 7.64398 40.5V38.7457L12.6989 39.7458C13.0572 39.8166 13.383 39.8491 13.7405 39.8491C13.7788 39.8491 13.818 39.8491 13.8572 39.8483L23.5936 39.6641C24.0911 39.6666 24.5836 39.5383 25.0152 39.2891L39.594 30.8712C40.9373 30.0961 41.399 28.3727 40.624 27.0293ZM6.64401 40H0.999976V25.7642H6.64401V40ZM39.0949 30.0053L24.5152 38.4232C24.2361 38.584 23.9203 38.6707 23.5961 38.664H23.5811L13.838 38.8482C13.5038 38.8549 13.2213 38.8299 12.893 38.7649L7.64398 37.7265V28.0102C8.63729 27.7202 11.1272 26.911 12.5272 26.4559C12.818 26.3618 13.0822 26.2759 13.2313 26.2276L25.8627 29.6128C26.3277 29.7378 26.7177 30.0378 26.961 30.4586C27.2043 30.8795 27.2693 31.3678 27.1443 31.8329C27.0193 32.2979 26.7194 32.6879 26.2985 32.9313C25.8777 33.1746 25.3894 33.2396 24.9244 33.1146L16.3096 30.8061C16.0429 30.7353 15.7688 30.8928 15.6971 31.1595C15.6255 31.4262 15.7838 31.7004 16.0504 31.772L24.6652 34.0805C25.3886 34.2738 26.146 34.1738 26.7977 33.7971C27.4502 33.4204 27.916 32.8146 28.1093 32.092C28.1518 31.9337 28.1802 31.7737 28.1943 31.6137L37.2624 26.8776C38.1749 26.4009 39.2699 26.6884 39.7565 27.531C40.2574 28.3952 39.9599 29.5061 39.0949 30.0053ZM9.69643 24.0916C10.2696 24.2457 10.8604 24.3238 11.4539 24.3242C12.623 24.3242 13.7772 24.0175 14.8171 23.4174C18.0396 21.5565 19.1479 17.4205 17.2871 14.1978C15.4263 10.9751 11.2906 9.86675 8.06814 11.7277C6.50734 12.6294 5.38987 14.0845 4.92405 15.8262C4.45739 17.568 4.69655 19.3864 5.5982 20.9473C6.49984 22.5082 7.95564 23.625 9.69643 24.0916ZM5.89069 16.0846C6.28818 14.6012 7.23899 13.3611 8.56896 12.5936C9.43952 12.0893 10.4278 11.8239 11.4339 11.8244C13.4222 11.8244 15.3588 12.8561 16.4221 14.6978C18.0071 17.443 17.0629 20.9665 14.318 22.5516C13.4474 23.0558 12.4591 23.3212 11.4531 23.3208C9.46477 23.3208 7.52815 22.2891 6.46484 20.4473C5.69653 19.1172 5.4932 17.568 5.89069 16.0846ZM28.3135 12.5569C28.0402 12.191 27.536 12.0877 27.1402 12.316L25.616 13.1961C25.4248 13.3064 25.2806 13.4831 25.211 13.6926C25.1415 13.9022 25.1512 14.13 25.2386 14.3328C25.3402 14.5687 25.3002 14.8137 25.1294 15.0045C24.9036 15.2579 24.6952 15.5295 24.5094 15.8121C24.3686 16.0262 24.1427 16.1279 23.8894 16.0912C23.4369 16.0254 23.0078 16.3096 22.8894 16.7504L22.4336 18.4514C22.3153 18.8922 22.5461 19.3531 22.9694 19.5222C23.2069 19.6172 23.3519 19.8181 23.3669 20.0739C23.3869 20.4115 23.4311 20.7515 23.5003 21.0832C23.5519 21.334 23.4644 21.5665 23.2586 21.7199C22.8928 21.9932 22.7894 22.4974 23.0178 22.8932L23.8978 24.4175C24.1261 24.8133 24.6144 24.9759 25.0344 24.795C25.2702 24.6933 25.5152 24.7333 25.706 24.9042C25.9585 25.13 26.2302 25.3384 26.5135 25.5242C26.7277 25.6651 26.8293 25.8909 26.7927 26.1442C26.7614 26.3627 26.8111 26.585 26.9326 26.7693C27.054 26.9536 27.2387 27.087 27.4518 27.1443L29.1518 27.6002C29.2293 27.621 29.3085 27.631 29.3851 27.631C29.7459 27.631 30.0826 27.4126 30.2218 27.0635C30.3168 26.8259 30.5176 26.6809 30.7734 26.6659C31.1109 26.6459 31.4501 26.6018 31.7826 26.5326C32.0334 26.4809 32.2659 26.5684 32.4192 26.7743C32.6925 27.1401 33.1967 27.2443 33.5925 27.016L35.1166 26.1359C35.5116 25.9084 35.6758 25.4234 35.5 25.0092C35.4 24.775 35.44 24.5308 35.6091 24.3408C35.8366 24.0841 36.0466 23.8091 36.2333 23.5224C36.3716 23.3108 36.5941 23.2083 36.8449 23.2399C37.3058 23.3008 37.7266 23.0224 37.8441 22.5816L38.2999 20.8806C38.4199 20.4323 38.1891 19.9714 37.7633 19.8081C37.5216 19.7156 37.3733 19.5147 37.3566 19.2556C37.3353 18.9203 37.2902 18.5869 37.2216 18.258C37.1683 18.0055 37.2574 17.7722 37.4641 17.6188C37.8366 17.343 37.9441 16.8354 37.7149 16.4388L36.8349 14.9145C36.6041 14.5153 36.1 14.3511 35.6866 14.5412C35.4483 14.6503 35.1983 14.6137 35.0025 14.4395C34.7545 14.2202 34.4913 14.0185 34.215 13.8361C33.9967 13.6919 33.8958 13.4619 33.9383 13.2036C34.0142 12.7444 33.7317 12.3077 33.2817 12.1869L31.5809 11.731C31.1401 11.6127 30.6793 11.8435 30.5101 12.2669C30.4151 12.5044 30.2143 12.6494 29.9584 12.6644C29.6201 12.6844 29.281 12.7294 28.9493 12.7977C28.6985 12.8511 28.4668 12.7627 28.3135 12.5569ZM29.1526 13.7778C29.4368 13.7186 29.7276 13.6803 30.0168 13.6636C30.6268 13.6278 31.1509 13.2686 31.4042 12.7194L32.9392 13.1303C32.8709 13.7436 33.1442 14.3278 33.665 14.6712C33.9008 14.8262 34.1275 15.0003 34.3392 15.1879C34.8058 15.6012 35.4383 15.712 36.0116 15.4887L36.8058 16.8638C36.3308 17.2513 36.1158 17.8572 36.2425 18.463C36.3016 18.7447 36.3408 19.0322 36.3583 19.3172C36.3966 19.9298 36.7591 20.4523 37.3116 20.7023L36.8999 22.239C36.29 22.1857 35.7325 22.4574 35.395 22.9749C35.234 23.2211 35.0555 23.4553 34.8608 23.6758C34.4592 24.1283 34.3425 24.7467 34.545 25.31L33.1667 26.1059C32.7792 25.6401 32.1801 25.4284 31.5801 25.5525C31.2951 25.6117 31.0051 25.6501 30.7159 25.6667C30.1059 25.7026 29.5818 26.0617 29.3285 26.6109L27.7927 26.1992C27.8485 25.5967 27.5735 25.0234 27.0635 24.6875C26.8204 24.5275 26.5893 24.3501 26.3719 24.1566C25.9152 23.7491 25.2902 23.6325 24.7219 23.8425L23.9269 22.4649C24.3927 22.0774 24.6044 21.4782 24.4802 20.879C24.4211 20.5948 24.3827 20.3039 24.3661 20.0148C24.3302 19.4047 23.9711 18.8805 23.4219 18.6272L23.8336 17.0913C24.4361 17.1471 25.0094 16.8729 25.3452 16.3621C25.5044 16.1204 25.6827 15.8879 25.876 15.6704C26.2835 15.2137 26.4002 14.5887 26.1902 14.0203L27.5677 13.2253C27.9535 13.6911 28.5535 13.902 29.1526 13.7778ZM25.5369 19.6656C25.5369 22.3291 27.7035 24.4958 30.3668 24.4958C33.03 24.4958 35.1966 22.3291 35.1966 19.6656C35.1966 17.0021 33.03 14.8353 30.3668 14.8353C27.7035 14.8353 25.5369 17.0021 25.5369 19.6656ZM28.0368 16.6288L28.1185 16.7696C28.211 16.9296 28.3793 17.0196 28.5518 17.0196C28.6368 17.0196 28.7226 16.9979 28.801 16.9529C28.9157 16.8865 28.9995 16.7773 29.0339 16.6492C29.0682 16.5211 29.0504 16.3846 28.9843 16.2696L28.9018 16.1271C29.206 16.0004 29.5293 15.9129 29.8668 15.8687V16.0329C29.8668 16.3087 30.0909 16.5329 30.3668 16.5329C30.6426 16.5329 30.8668 16.3087 30.8668 16.0329V15.8687C31.2042 15.9129 31.5276 16.0004 31.8317 16.1271L31.7492 16.2696C31.6109 16.5088 31.6934 16.8146 31.9326 16.9529C32.0109 16.9988 32.0976 17.0196 32.1817 17.0196C32.3542 17.0196 32.5225 16.9296 32.615 16.7696L32.6967 16.6288C32.9617 16.8321 33.1992 17.0696 33.4025 17.3346L33.2617 17.4163C33.1469 17.4827 33.0632 17.592 33.0288 17.7201C32.9944 17.8482 33.0123 17.9847 33.0784 18.0997C33.1709 18.2597 33.3392 18.3497 33.5117 18.3497C33.5967 18.3497 33.6825 18.328 33.7609 18.283L33.9033 18.2005C34.03 18.5047 34.1175 18.828 34.1617 19.1656H33.9975C33.7217 19.1656 33.4975 19.3897 33.4975 19.6656C33.4975 19.9414 33.7217 20.1656 33.9975 20.1656H34.1617C34.1175 20.5031 34.03 20.8265 33.9033 21.1307L33.7609 21.0482C33.5217 20.9098 33.2159 20.9923 33.0775 21.2315C32.9392 21.4707 33.0217 21.7765 33.2609 21.9149L33.4017 21.9965C33.1983 22.2616 32.961 22.499 32.6959 22.7024L32.6142 22.5616C32.5478 22.4468 32.4385 22.363 32.3104 22.3286C32.1824 22.2943 32.0459 22.3121 31.9309 22.3782C31.8161 22.4447 31.7324 22.5539 31.698 22.682C31.6636 22.8101 31.6815 22.9466 31.7476 23.0616L31.8301 23.2041C31.5212 23.3325 31.1968 23.4194 30.8651 23.4624V23.2983C30.8651 23.0224 30.6409 22.7982 30.3651 22.7982C30.0893 22.7982 29.8651 23.0224 29.8651 23.2983V23.4624C29.5276 23.4183 29.2043 23.3308 28.9001 23.2041L28.9826 23.0616C29.121 22.8224 29.0385 22.5166 28.7993 22.3782C28.5601 22.2399 28.2543 22.3224 28.116 22.5616L28.0343 22.7024C27.7692 22.499 27.5319 22.2616 27.3285 21.9965L27.4693 21.9149C27.7085 21.7765 27.7902 21.4707 27.6527 21.2315C27.5152 20.9923 27.2085 20.9106 26.9694 21.0482L26.8269 21.1307C26.6985 20.8218 26.6116 20.4973 26.5685 20.1656H26.7327C27.0085 20.1656 27.2327 19.9414 27.2327 19.6656C27.2327 19.3897 27.0085 19.1656 26.7327 19.1656H26.5685C26.6127 18.828 26.7002 18.5047 26.8269 18.2005L26.9694 18.283C27.0485 18.3288 27.1343 18.3497 27.2185 18.3497C27.391 18.3497 27.5593 18.2597 27.6518 18.0997C27.7902 17.8605 27.7077 17.5546 27.4685 17.4163L27.3277 17.3346C27.5343 17.0705 27.7718 16.8329 28.0368 16.6288ZM29.8668 19.6656V17.4013C29.8668 17.1255 30.0909 16.9013 30.3668 16.9013C30.6426 16.9013 30.8668 17.1255 30.8668 17.4013V19.1656H31.8926C32.1684 19.1656 32.3926 19.3897 32.3926 19.6656C32.3926 19.9414 32.1684 20.1656 31.8926 20.1656H30.3668C30.0901 20.1656 29.8668 19.9414 29.8668 19.6656ZM21.6561 13.4953C23.3844 13.4953 25.1127 12.8369 26.4294 11.521C27.7043 10.2459 28.406 8.55085 28.406 6.74743C28.406 4.944 27.7035 3.24892 26.4294 1.97385C23.7978 -0.65795 19.5154 -0.65795 16.8838 1.97385C15.6088 3.24892 14.9071 4.944 14.9071 6.74743C14.9071 8.55085 15.6096 10.2459 16.8838 11.521C18.1996 12.8377 19.9279 13.4953 21.6561 13.4953ZM18.1929 11.3377C18.4987 9.98426 19.7129 8.99421 21.1245 8.99421H22.1878C23.5994 8.99421 24.8136 9.98426 25.1194 11.3377C23.0778 12.8802 20.2345 12.8802 18.1929 11.3377ZM21.6561 7.77581C20.6912 7.77581 19.9062 6.99077 19.9062 6.02572C19.9062 5.06067 20.6912 4.27563 21.6561 4.27563C22.6211 4.27563 23.4061 5.06067 23.4061 6.02572C23.4061 6.99077 22.6211 7.77581 21.6561 7.77581ZM17.5904 2.68222C18.7112 1.56133 20.1837 1.00047 21.6561 1.00047C23.1286 1.00047 24.6011 1.56133 25.7219 2.68222C26.8077 3.76811 27.406 5.21235 27.406 6.74826C27.406 8.18 26.886 9.53173 25.936 10.5876C25.4985 9.4309 24.5427 8.53835 23.3703 8.17333C24.0011 7.66914 24.4061 6.8941 24.4061 6.02572C24.4061 4.50981 23.1728 3.27558 21.6561 3.27558C20.1395 3.27558 18.9062 4.50898 18.9062 6.02572C18.9062 6.8941 19.3112 7.66914 19.942 8.17333C18.7687 8.53835 17.8129 9.43006 17.3762 10.5876C16.4263 9.5309 15.9063 8.17917 15.9063 6.74826C15.9063 5.21235 16.5046 3.76811 17.5904 2.68222Z" fill="black"/>
<path d="M11.4437 18.0723C12.3978 18.0723 12.5978 18.6732 12.5978 19.1765C12.5978 19.7849 12.0803 20.2808 11.4437 20.2808C10.807 20.2808 10.2895 19.7849 10.2895 19.1765C10.2895 18.9007 10.0654 18.6765 9.78954 18.6765C9.51371 18.6765 9.28955 18.9007 9.28955 19.1765C9.28955 20.1683 9.9962 21.0016 10.9437 21.2225V21.9033C10.9437 22.1792 11.1678 22.4034 11.4437 22.4034C11.7195 22.4034 11.9437 22.1792 11.9437 21.9033V21.2225C12.8911 21.0016 13.5978 20.1683 13.5978 19.1765C13.5978 17.8981 12.752 17.0723 11.4437 17.0723C10.4895 17.0723 10.2895 16.4714 10.2895 15.968C10.2895 15.3588 10.807 14.8638 11.4437 14.8638C12.0803 14.8638 12.5978 15.3597 12.5978 15.968C12.5978 16.2439 12.822 16.4681 13.0978 16.4681C13.3736 16.4681 13.5978 16.2439 13.5978 15.968C13.5978 14.9763 12.8911 14.1429 11.9437 13.9221V13.2412C11.9437 12.9654 11.7195 12.7412 11.4437 12.7412C11.1678 12.7412 10.9437 12.9654 10.9437 13.2412V13.9221C9.9962 14.1429 9.28955 14.9763 9.28955 15.968C9.28955 17.2464 10.1354 18.0723 11.4437 18.0723Z" fill="#41A5FA"/>
</svg>
